<svg viewBox="0 0 760 300" xmlns="http://www.w3.org/2000/svg" font-family="Segoe UI, Helvetica, Arial, sans-serif">
  <rect x="0" y="0" width="760" height="300" rx="14" fill="#0D1117"/>
  <text x="30" y="40" fill="#E6EDF3" font-size="22" font-weight="700">Evaluación RAGAS — baseline</text>
  <text x="30" y="64" fill="#8B949E" font-size="13">generación llama3.1:8b (local) · juez Claude Haiku 4.5 · 10 preguntas</text>

  <!-- eje 1.0 -->
  <line x1="700" y1="86" x2="700" y2="250" stroke="#30363D" stroke-width="1" stroke-dasharray="3 3"/>
  <text x="700" y="272" fill="#6E7681" font-size="11" text-anchor="middle">1.0</text>
  <text x="230" y="272" fill="#6E7681" font-size="11" text-anchor="middle">0</text>

  <!-- faithfulness: 0.328 -->
  <text x="220" y="107" fill="#C9D1D9" font-size="14" text-anchor="end">faithfulness</text>
  <rect x="230" y="90" width="470" height="24" rx="6" fill="#21262D"/>
  <rect x="230" y="90" width="154" height="24" rx="6" fill="#FB7185"/>
  <text x="392" y="107" fill="#FB7185" font-size="13" font-weight="700">0.33</text>

  <!-- answer_relevancy: 0.924 -->
  <text x="220" y="149" fill="#C9D1D9" font-size="14" text-anchor="end">answer_relevancy</text>
  <rect x="230" y="132" width="470" height="24" rx="6" fill="#21262D"/>
  <rect x="230" y="132" width="434" height="24" rx="6" fill="#2DD4BF"/>
  <text x="656" y="149" fill="#0D1117" font-size="13" font-weight="700" text-anchor="end">0.92</text>

  <!-- context_precision: 0.383 -->
  <text x="220" y="191" fill="#C9D1D9" font-size="14" text-anchor="end">context_precision</text>
  <rect x="230" y="174" width="470" height="24" rx="6" fill="#21262D"/>
  <rect x="230" y="174" width="180" height="24" rx="6" fill="#FB7185"/>
  <text x="418" y="191" fill="#FB7185" font-size="13" font-weight="700">0.38</text>

  <!-- context_recall: 0.383 -->
  <text x="220" y="233" fill="#C9D1D9" font-size="14" text-anchor="end">context_recall</text>
  <rect x="230" y="216" width="470" height="24" rx="6" fill="#21262D"/>
  <rect x="230" y="216" width="180" height="24" rx="6" fill="#FB7185"/>
  <text x="418" y="233" fill="#FB7185" font-size="13" font-weight="700">0.38</text>
</svg>
